<?xml version="1.0" encoding="UTF-8"?>
<!DOCTYPE svg PUBLIC "-//W3C//DTD SVG 1.1//EN" "http://www.w3.org/Graphics/SVG/1.1/DTD/svg11.dtd">
<svg xmlns="http://www.w3.org/2000/svg" version="1.1" width="223px" height="57px" style="shape-rendering:geometricPrecision; text-rendering:geometricPrecision; image-rendering:optimizeQuality; fill-rule:evenodd; clip-rule:evenodd" xmlns:xlink="http://www.w3.org/1999/xlink">
<g><path style="opacity:0.999" fill="#2576c3" d="M 10.5,5.5 C 20.5224,5.5111 30.5224,6.0111 40.5,7C 41.3081,7.30762 41.9747,7.80762 42.5,8.5C 44.4904,19.735 44.9904,31.0683 44,42.5C 43.6397,44.4211 42.8064,46.0878 41.5,47.5C 30.2111,49.7684 18.8777,49.935 7.5,48C 6.66667,47.1667 5.83333,46.3333 5,45.5C 4.33333,33.5 4.33333,21.5 5,9.5C 6.45621,7.53466 8.28955,6.20132 10.5,5.5 Z M 19.5,34.5 C 19.7565,36.7761 21.0898,37.9428 23.5,38C 21.8659,38.4935 20.1992,38.6602 18.5,38.5C 18.1667,37.5 17.5,36.8333 16.5,36.5C 15.9294,31.1488 16.9294,30.4822 19.5,34.5 Z M 25.5,35.5 C 25.5,35.1667 25.5,34.8333 25.5,34.5C 26.3267,29.3491 26.8267,24.0158 27,18.5C 27.414,18.0426 27.914,17.7093 28.5,17.5C 29.8962,18.8524 30.5629,20.5191 30.5,22.5C 29.6849,27.1323 29.3516,31.799 29.5,36.5C 27.901,36.7678 26.5676,36.4345 25.5,35.5 Z"/></g>
<g><path style="opacity:0.773" fill="#73addb" d="M 65.5,24.5 C 68.6248,23.5206 71.9581,23.1872 75.5,23.5C 75.5323,25.6188 74.5323,26.9522 72.5,27.5C 72.5774,26.2502 73.244,25.4169 74.5,25C 71.5184,24.502 68.5184,24.3354 65.5,24.5 Z"/></g>
<g><path style="opacity:0.991" fill="#3480c7" d="M 96.5,27.5 C 96.3505,28.552 96.5172,29.552 97,30.5C 98.0113,29.6634 99.1779,29.33 100.5,29.5C 102.38,29.2291 103.713,29.8958 104.5,31.5C 105.833,35.1667 105.833,38.8333 104.5,42.5C 104.158,43.3382 103.492,43.6716 102.5,43.5C 99.4854,44.2131 96.4854,44.5465 93.5,44.5C 92.5046,38.8722 92.1712,33.2055 92.5,27.5C 88.047,22.5635 89.3803,20.5635 96.5,21.5C 96.5,23.5 96.5,25.5 96.5,27.5 Z M 101.5,34.5 C 99.459,42.3699 97.7923,42.3699 96.5,34.5C 98.0009,32.0428 99.6676,32.0428 101.5,34.5 Z"/></g>
<g><path style="opacity:0.134" fill="#dcebf6" d="M 179.5,22.5 C 180.167,26.1667 180.833,29.8333 181.5,33.5C 181.217,34.2891 180.717,34.9558 180,35.5C 179.501,31.1794 179.334,26.8461 179.5,22.5 Z"/></g>
<g><path style="opacity:0.994" fill="#3f82c8" d="M 65.5,24.5 C 68.5184,24.3354 71.5184,24.502 74.5,25C 73.244,25.4169 72.5774,26.2502 72.5,27.5C 73.3542,32.1118 73.1876,36.7785 72,41.5C 67.242,47.1255 63.4086,46.6255 60.5,40C 60.7003,36.7155 62.2003,35.8821 65,37.5C 65.49,38.7932 65.6567,40.1266 65.5,41.5C 64.1667,41.8333 64.1667,42.1667 65.5,42.5C 66.4959,42.5858 67.3292,42.2524 68,41.5C 68.8163,36.3158 68.6497,31.3158 67.5,26.5C 66.1667,26.5 65.5,25.8333 65.5,24.5 Z"/></g>
<g><path style="opacity:0.998" fill="#4887cb" d="M 135.5,29.5 C 134.833,29.5 134.167,29.5 133.5,29.5C 132.599,28.7095 131.932,27.7095 131.5,26.5C 130.053,25.1148 129.053,25.4482 128.5,27.5C 127.875,33.3277 129.209,38.4944 132.5,43C 129.116,45.0644 125.449,45.7311 121.5,45C 120.226,44.0228 120.226,43.1894 121.5,42.5C 122.5,42.5 123.5,42.5 124.5,42.5C 124.5,39.8333 124.5,37.1667 124.5,34.5C 124.5,32.1667 124.5,29.8333 124.5,27.5C 123.947,25.4482 122.947,25.1148 121.5,26.5C 120.766,27.7079 120.433,29.0413 120.5,30.5C 119.5,30.5 118.5,30.5 117.5,30.5C 117.5,30.1667 117.5,29.8333 117.5,29.5C 117.5,27.5 117.5,25.5 117.5,23.5C 123.5,23.5 129.5,23.5 135.5,23.5C 135.5,25.5 135.5,27.5 135.5,29.5 Z"/></g>
<g><path style="opacity:0.498" fill="#9dc6e6" d="M 121.5,26.5 C 122.947,25.1148 123.947,25.4482 124.5,27.5C 123.609,26.8902 122.609,26.5569 121.5,26.5 Z"/></g>
<g><path style="opacity:0.478" fill="#9fc7e6" d="M 131.5,26.5 C 130.391,26.5569 129.391,26.8902 128.5,27.5C 129.053,25.4482 130.053,25.1148 131.5,26.5 Z"/></g>
<g><path style="opacity:0.536" fill="#7db5de" d="M 174.5,24.5 C 175.816,27.0866 176.483,30.0866 176.5,33.5C 176.498,36.6862 176.165,39.6862 175.5,42.5C 175.5,42.1667 175.5,41.8333 175.5,41.5C 175.786,35.7414 175.452,30.0748 174.5,24.5 Z"/></g>
<g><path style="opacity:0.135" fill="#daeaf5" d="M 67.5,26.5 C 68.6497,31.3158 68.8163,36.3158 68,41.5C 67.3292,42.2524 66.4959,42.5858 65.5,42.5C 65.5,42.1667 65.5,41.8333 65.5,41.5C 66.1174,41.3893 66.6174,41.056 67,40.5C 67.4992,35.8452 67.6658,31.1785 67.5,26.5 Z"/></g>
<g><path style="opacity:0.005" fill="#f4f8fc" d="M 92.5,27.5 C 92.1712,33.2055 92.5046,38.8722 93.5,44.5C 96.4854,44.5465 99.4854,44.2131 102.5,43.5C 102.116,45.2926 100.95,46.2926 99,46.5C 97.1923,45.3099 95.359,45.3099 93.5,46.5C 92.5581,46.3918 91.7247,46.0585 91,45.5C 90.79,43.9419 90.29,42.6085 89.5,41.5C 89.3284,40.5084 89.6618,39.8417 90.5,39.5C 90.5,37.8333 90.5,36.1667 90.5,34.5C 91.1667,32.1667 91.8333,29.8333 92.5,27.5 Z"/></g>
<g><path style="opacity:0.004" fill="#f5f9fc" d="M 96.5,27.5 C 97.9952,27.9887 99.3285,28.6554 100.5,29.5C 99.1779,29.33 98.0113,29.6634 97,30.5C 96.5172,29.552 96.3505,28.552 96.5,27.5 Z"/></g>
<g><path style="opacity:0.004" fill="#f0f6fb" d="M 20.5,32.5 C 19.6618,32.8417 19.3284,33.5084 19.5,34.5C 16.9294,30.4822 15.9294,31.1488 16.5,36.5C 15.5386,34.7354 15.2053,32.7354 15.5,30.5C 17.7812,30.0773 19.4479,30.744 20.5,32.5 Z"/></g>
<g><path style="opacity:1" fill="#88aedc" d="M 87.5,30.5 C 85.9519,30.8212 85.2852,31.8212 85.5,33.5C 84.2921,32.7659 82.9587,32.4326 81.5,32.5C 81.5,31.1667 80.8333,30.5 79.5,30.5C 82.1667,27.8333 84.8333,27.8333 87.5,30.5 Z"/></g>
<g><path style="opacity:0.373" fill="#b1d2eb" d="M 133.5,29.5 C 134.167,29.5 134.833,29.5 135.5,29.5C 135.833,29.5 136.167,29.5 136.5,29.5C 136.557,30.609 136.89,31.609 137.5,32.5C 135.878,31.8776 134.545,30.8776 133.5,29.5 Z"/></g>
<g><path style="opacity:1" fill="#3680c7" d="M 136.5,29.5 C 140.371,29.185 144.038,29.5184 147.5,30.5C 147.5,31.5 147.5,32.5 147.5,33.5C 145.602,32.9035 143.935,32.9035 142.5,33.5C 142.232,37.083 142.899,40.4164 144.5,43.5C 141.615,43.8064 138.948,43.4731 136.5,42.5C 137.777,41.3064 138.444,39.6397 138.5,37.5C 138.493,35.6307 138.16,33.964 137.5,32.5C 136.89,31.609 136.557,30.609 136.5,29.5 Z"/></g>
<g><path style="opacity:0.997" fill="#4e89cc" d="M 158.5,31.5 C 158.335,34.8499 158.502,38.1832 159,41.5C 159.995,42.0659 160.828,42.7326 161.5,43.5C 161.134,44.6946 160.301,45.3613 159,45.5C 155.86,44.7446 152.693,44.5779 149.5,45C 145.533,42.0342 145.533,39.2008 149.5,36.5C 151.403,36.2041 153.07,35.5375 154.5,34.5C 154.5,33.8333 154.5,33.1667 154.5,32.5C 153.791,31.596 152.791,31.2627 151.5,31.5C 151.5,32.5 151.5,33.5 151.5,34.5C 150.5,34.5 149.5,34.5 148.5,34.5C 148.433,33.0413 148.766,31.7079 149.5,30.5C 152.786,27.7327 155.786,28.0661 158.5,31.5 Z"/></g>
<g><path style="opacity:0.998" fill="#4989cb" d="M 203.5,29.5 C 207.226,29.1774 210.893,29.5108 214.5,30.5C 215.534,32.4384 214.868,33.7717 212.5,34.5C 211.558,34.3918 210.725,34.0585 210,33.5C 209.833,34.8333 209.667,36.1667 209.5,37.5C 210.021,39.9241 210.688,42.2574 211.5,44.5C 208.672,45.4967 206.005,45.4967 203.5,44.5C 206.097,39.4863 206.097,34.4863 203.5,29.5 Z"/></g>
<g><path style="opacity:0.996" fill="#3a81c8" d="M 79.5,30.5 C 80.8333,30.5 81.5,31.1667 81.5,32.5C 81.5,32.8333 81.5,33.1667 81.5,33.5C 80.3709,35.6282 80.2042,37.9615 81,40.5C 82.5494,43.0026 84.2161,43.0026 86,40.5C 86.7958,37.9615 86.6291,35.6282 85.5,33.5C 85.2852,31.8212 85.9519,30.8212 87.5,30.5C 89.2624,31.2623 90.2624,32.5956 90.5,34.5C 90.5,36.1667 90.5,37.8333 90.5,39.5C 89.6618,39.8417 89.3284,40.5084 89.5,41.5C 89.1667,42.5 88.5,43.1667 87.5,43.5C 84.0118,44.9198 80.6785,44.5865 77.5,42.5C 74.6791,37.8082 75.3458,33.8082 79.5,30.5 Z M 81.5,32.5 C 82.9587,32.4326 84.2921,32.7659 85.5,33.5C 85.6621,35.5273 85.4955,37.5273 85,39.5C 84,40.8333 83,40.8333 82,39.5C 81.5045,37.5273 81.3379,35.5273 81.5,33.5C 81.5,33.1667 81.5,32.8333 81.5,32.5 Z"/></g>
<g><path style="opacity:0.004" fill="#dbeaf5" d="M 154.5,32.5 C 153.167,33.1667 153.167,33.8333 154.5,34.5C 153.07,35.5375 151.403,36.2041 149.5,36.5C 149.167,35.8333 148.833,35.1667 148.5,34.5C 149.5,34.5 150.5,34.5 151.5,34.5C 151.5,33.5 151.5,32.5 151.5,31.5C 152.791,31.2627 153.791,31.596 154.5,32.5 Z"/></g>
<g><path style="opacity:0.999" fill="#307fc7" d="M 200.5,30.5 C 201.219,32.7638 201.552,35.0971 201.5,37.5C 198.833,37.5 196.167,37.5 193.5,37.5C 193.263,38.791 193.596,39.791 194.5,40.5C 195.391,41.1098 196.391,41.4431 197.5,41.5C 199.017,41.4894 200.184,40.8228 201,39.5C 201.684,40.7839 201.517,41.9505 200.5,43C 198.323,44.2022 195.989,44.7022 193.5,44.5C 190.083,42.1529 188.749,38.8196 189.5,34.5C 191.842,29.1654 195.509,27.8321 200.5,30.5 Z M 197.5,32.5 C 197.672,33.4916 197.338,34.1583 196.5,34.5C 194.969,33.0755 195.302,32.4088 197.5,32.5 Z"/></g>
<g><path style="opacity:0.005" fill="#e6f0f8" d="M 203.5,29.5 C 206.097,34.4863 206.097,39.4863 203.5,44.5C 200.001,45.4435 196.668,45.4435 193.5,44.5C 195.989,44.7022 198.323,44.2022 200.5,43C 201.517,41.9505 201.684,40.7839 201,39.5C 200.184,40.8228 199.017,41.4894 197.5,41.5C 198.562,40.4246 198.562,39.4246 197.5,38.5C 196.575,39.6405 195.741,39.6405 195,38.5C 194.536,39.0944 194.369,39.7611 194.5,40.5C 193.596,39.791 193.263,38.791 193.5,37.5C 196.167,37.5 198.833,37.5 201.5,37.5C 201.552,35.0971 201.219,32.7638 200.5,30.5C 201.117,30.6107 201.617,30.944 202,31.5C 202.278,30.5842 202.778,29.9175 203.5,29.5 Z"/></g>
<g><path style="opacity:0.99" fill="#4a88cb" d="M 117.5,29.5 C 117.5,29.8333 117.5,30.1667 117.5,30.5C 117.768,32.099 117.434,33.4324 116.5,34.5C 115.222,34.2178 114.222,33.5511 113.5,32.5C 112.791,31.596 111.791,31.2627 110.5,31.5C 110.285,33.1788 110.952,34.1788 112.5,34.5C 113.514,35.6737 114.847,36.3404 116.5,36.5C 118.98,39.637 118.313,42.3037 114.5,44.5C 112.167,44.5 109.833,44.5 107.5,44.5C 106.833,44.5 106.5,44.1667 106.5,43.5C 106.215,41.712 106.548,40.0453 107.5,38.5C 108.182,39.2427 108.849,39.9094 109.5,40.5C 110.708,41.2341 112.041,41.5674 113.5,41.5C 114.773,40.9232 114.773,40.2565 113.5,39.5C 111.259,38.8714 109.259,37.8714 107.5,36.5C 106.766,35.2921 106.433,33.9587 106.5,32.5C 106.574,30.5891 107.574,29.4224 109.5,29C 112.34,29.1687 115.007,29.3353 117.5,29.5 Z M 113.5,32.5 C 113.672,33.4916 113.338,34.1583 112.5,34.5C 110.969,33.0755 111.302,32.4088 113.5,32.5 Z M 109.5,40.5 C 110.962,39.5291 112.295,39.8624 113.5,41.5C 112.041,41.5674 110.708,41.2341 109.5,40.5 Z"/></g>
<g><path style="opacity:0.259" fill="#bad8ed" d="M 137.5,32.5 C 138.16,33.964 138.493,35.6307 138.5,37.5C 138.444,39.6397 137.777,41.3064 136.5,42.5C 137.414,39.272 137.747,35.9387 137.5,32.5 Z"/></g>
<g><path style="opacity:0.997" fill="#528bcd" d="M 172.5,35.5 C 171.5,35.5 170.5,35.5 169.5,35.5C 169.5,34.1667 169.5,32.8333 169.5,31.5C 168.209,31.2627 167.209,31.596 166.5,32.5C 166.336,35.1873 166.503,37.854 167,40.5C 167.671,41.2524 168.504,41.5858 169.5,41.5C 170.833,40.8333 172.167,40.1667 173.5,39.5C 173.267,41.0618 172.6,42.3951 171.5,43.5C 171.038,44.8799 170.038,45.5466 168.5,45.5C 166.578,45.1992 164.912,44.5325 163.5,43.5C 161.819,40.418 161.152,37.0847 161.5,33.5C 164.433,28.9096 168.266,27.9096 173,30.5C 173.78,32.3869 173.613,34.0536 172.5,35.5 Z"/></g>
<g><path style="opacity:0.004" fill="#f0f6fb" d="M 197.5,32.5 C 195.302,32.4088 194.969,33.0755 196.5,34.5C 192.698,34.1051 192.531,33.1051 196,31.5C 196.765,31.5699 197.265,31.9033 197.5,32.5 Z"/></g>
<g><path style="opacity:0.102" fill="#edf5fa" d="M 113.5,32.5 C 111.302,32.4088 110.969,33.0755 112.5,34.5C 110.952,34.1788 110.285,33.1788 110.5,31.5C 111.791,31.2627 112.791,31.596 113.5,32.5 Z"/></g>
<g><path style="opacity:0.851" fill="#abcce9" d="M 147.5,30.5 C 148.167,30.5 148.833,30.5 149.5,30.5C 148.766,31.7079 148.433,33.0413 148.5,34.5C 147.417,34.5394 146.417,34.8728 145.5,35.5C 144.482,34.8075 143.482,34.1408 142.5,33.5C 143.935,32.9035 145.602,32.9035 147.5,33.5C 147.5,32.5 147.5,31.5 147.5,30.5 Z"/></g>
<g><path style="opacity:0.004" fill="#f9fbfd" d="M 187.5,32.5 C 187.123,34.8241 186.123,35.4908 184.5,34.5C 184.973,33.0937 185.973,32.427 187.5,32.5 Z"/></g>
<g><path style="opacity:0.004" fill="#e5f0f8" d="M 18.5,38.5 C 20.1992,38.6602 21.8659,38.4935 23.5,38C 21.0898,37.9428 19.7565,36.7761 19.5,34.5C 20.3382,34.1583 20.6716,33.4916 20.5,32.5C 21.2485,33.531 21.9152,34.6976 22.5,36C 23.5768,36.4696 24.5768,36.3029 25.5,35.5C 26.5676,36.4345 27.901,36.7678 29.5,36.5C 29.3516,31.799 29.6849,27.1323 30.5,22.5C 30.5629,20.5191 29.8962,18.8524 28.5,17.5C 27.914,17.7093 27.414,18.0426 27,18.5C 26.8267,24.0158 26.3267,29.3491 25.5,34.5C 25.1918,28.5746 25.5251,22.7412 26.5,17C 28.1124,16.2797 29.6124,16.4464 31,17.5C 31.6667,23.5 31.6667,29.5 31,35.5C 30.5,37.3333 29.3333,38.5 27.5,39C 24.3035,39.8045 21.3035,39.6378 18.5,38.5 Z M 25.5,35.5 C 25.5,35.1667 25.5,34.8333 25.5,34.5C 26.3267,29.3491 26.8267,24.0158 27,18.5C 27.414,18.0426 27.914,17.7093 28.5,17.5C 29.8962,18.8524 30.5629,20.5191 30.5,22.5C 29.6849,27.1323 29.3516,31.799 29.5,36.5C 27.901,36.7678 26.5676,36.4345 25.5,35.5 Z"/></g>
<g><path style="opacity:0.004" fill="#dfecf7" d="M 113.5,32.5 C 114.222,33.5511 115.222,34.2178 116.5,34.5C 116.5,35.1667 116.5,35.8333 116.5,36.5C 114.847,36.3404 113.514,35.6737 112.5,34.5C 113.338,34.1583 113.672,33.4916 113.5,32.5 Z"/></g>
<g><path style="opacity:0.004" fill="#ebf3f9" d="M 124.5,34.5 C 124.5,37.1667 124.5,39.8333 124.5,42.5C 123.5,42.5 122.5,42.5 121.5,42.5C 122.935,39.9717 123.935,37.305 124.5,34.5 Z"/></g>
<g><path style="opacity:0.008" fill="#ecf4fa" d="M 166.5,32.5 C 167.209,31.596 168.209,31.2627 169.5,31.5C 169.5,32.8333 169.5,34.1667 169.5,35.5C 170.5,35.5 171.5,35.5 172.5,35.5C 172.189,36.4778 171.522,37.1445 170.5,37.5C 169.311,35.6366 167.978,33.9699 166.5,32.5 Z"/></g>
<g><path style="opacity:0.004" fill="#e8f1f9" d="M 158.5,31.5 C 159.239,31.369 159.906,31.5357 160.5,32C 159.483,33.0495 159.316,34.2161 160,35.5C 160.278,34.5842 160.778,33.9175 161.5,33.5C 161.152,37.0847 161.819,40.418 163.5,43.5C 162.833,43.5 162.167,43.5 161.5,43.5C 160.828,42.7326 159.995,42.0659 159,41.5C 158.502,38.1832 158.335,34.8499 158.5,31.5 Z"/></g>
<g><path style="opacity:0.996" fill="#508bcc" d="M 179.5,22.5 C 179.334,26.8461 179.501,31.1794 180,35.5C 180.717,34.9558 181.217,34.2891 181.5,33.5C 181.5,32.1667 181.5,30.8333 181.5,29.5C 184.332,28.3711 186.999,28.8711 189.5,31C 188.956,31.7172 188.289,32.2172 187.5,32.5C 185.973,32.427 184.973,33.0937 184.5,34.5C 184.392,36.5138 185.058,38.1805 186.5,39.5C 187.241,41.3542 188.241,43.0209 189.5,44.5C 186.692,46.1671 184.525,45.5005 183,42.5C 180.553,44.9873 177.72,45.654 174.5,44.5C 174.328,43.5084 174.662,42.8417 175.5,42.5C 176.165,39.6862 176.498,36.6862 176.5,33.5C 176.483,30.0866 175.816,27.0866 174.5,24.5C 172.451,24.2942 172.117,23.4609 173.5,22C 175.712,21.2109 177.712,21.3775 179.5,22.5 Z"/></g>
<g><path style="opacity:0.004" fill="#e3eef7" d="M 96.5,34.5 C 97.7923,42.3699 99.459,42.3699 101.5,34.5C 103.124,37.8512 102.291,40.5178 99,42.5C 98.228,42.3552 97.5613,42.0219 97,41.5C 96.5034,39.1902 96.3367,36.8568 96.5,34.5 Z"/></g>
<g><path style="opacity:0.357" fill="#cde2f2" d="M 104.5,31.5 C 105.167,31.8333 105.833,32.1667 106.5,32.5C 106.433,33.9587 106.766,35.2921 107.5,36.5C 109.259,37.8714 111.259,38.8714 113.5,39.5C 114.773,40.2565 114.773,40.9232 113.5,41.5C 112.295,39.8624 110.962,39.5291 109.5,40.5C 108.849,39.9094 108.182,39.2427 107.5,38.5C 106.548,40.0453 106.215,41.712 106.5,43.5C 105.833,43.1667 105.167,42.8333 104.5,42.5C 105.833,38.8333 105.833,35.1667 104.5,31.5 Z M 109.5,40.5 C 110.962,39.5291 112.295,39.8624 113.5,41.5C 112.041,41.5674 110.708,41.2341 109.5,40.5 Z"/></g>
<g><path style="opacity:0.006" fill="#e4eff8" d="M 153.5,41.5 C 153.167,40.1667 152.833,40.1667 152.5,41.5C 150.965,38.6702 151.965,37.3369 155.5,37.5C 155.843,39.4832 155.176,40.8166 153.5,41.5 Z"/></g>
<g><path style="opacity:0.004" fill="#edf5fa" d="M 189.5,34.5 C 188.749,38.8196 190.083,42.1529 193.5,44.5C 192.167,44.5 190.833,44.5 189.5,44.5C 188.241,43.0209 187.241,41.3542 186.5,39.5C 187.687,37.9275 188.687,36.2608 189.5,34.5 Z"/></g>
<g><path style="opacity:0.004" fill="#f0f6fb" d="M 173.5,39.5 C 172.167,40.1667 170.833,40.8333 169.5,41.5C 170.226,38.9873 171.559,38.3207 173.5,39.5 Z"/></g>
<g><path style="opacity:0.139" fill="#cfe3f3" d="M 181.5,39.5 C 180.662,39.8417 180.328,40.5084 180.5,41.5C 179.224,40.6136 179.224,39.6136 180.5,38.5C 181.107,38.6236 181.44,38.9569 181.5,39.5 Z"/></g>
<g><path style="opacity:0.004" fill="#f5f9fc" d="M 81.5,33.5 C 81.3379,35.5273 81.5045,37.5273 82,39.5C 83,40.8333 84,40.8333 85,39.5C 85.4955,37.5273 85.6621,35.5273 85.5,33.5C 86.6291,35.6282 86.7958,37.9615 86,40.5C 84.2161,43.0026 82.5494,43.0026 81,40.5C 80.2042,37.9615 80.3709,35.6282 81.5,33.5 Z"/></g>
<g><path style="opacity:0.004" fill="#d3e5f3" d="M 173.5,39.5 C 174.167,40.1667 174.833,40.8333 175.5,41.5C 175.5,41.8333 175.5,42.1667 175.5,42.5C 174.662,42.8417 174.328,43.5084 174.5,44.5C 173.609,43.8902 172.609,43.5569 171.5,43.5C 172.6,42.3951 173.267,41.0618 173.5,39.5 Z"/></g>
<g><path style="opacity:0.005" fill="#f9fbfd" d="M 77.5,42.5 C 80.6785,44.5865 84.0118,44.9198 87.5,43.5C 85.1995,46.857 82.1995,47.357 78.5,45C 77.7476,44.3292 77.4142,43.4959 77.5,42.5 Z"/></g>
<g><path style="opacity:0.895" fill="#70a6d8" d="M 136.5,42.5 C 138.948,43.4731 141.615,43.8064 144.5,43.5C 142.444,44.2161 140.277,44.8828 138,45.5C 137.075,44.9535 136.242,44.2868 135.5,43.5C 135.624,42.8933 135.957,42.56 136.5,42.5 Z"/></g>
<g><path style="opacity:0.004" fill="#fdfefe" d="M 107.5,44.5 C 109.833,44.5 112.167,44.5 114.5,44.5C 112.25,47.0341 109.916,47.0341 107.5,44.5 Z"/></g>
</svg>
