<?xml version="1.0" encoding="UTF-8"?>
<!DOCTYPE svg PUBLIC "-//W3C//DTD SVG 1.1//EN" "http://www.w3.org/Graphics/SVG/1.1/DTD/svg11.dtd">
<svg xmlns="http://www.w3.org/2000/svg" version="1.1" width="146px" height="28px" style="shape-rendering:geometricPrecision; text-rendering:geometricPrecision; image-rendering:optimizeQuality; fill-rule:evenodd; clip-rule:evenodd" xmlns:xlink="http://www.w3.org/1999/xlink">
<g><path style="opacity:1" fill="#fdfefe" d="M -0.5,-0.5 C 48.1667,-0.5 96.8333,-0.5 145.5,-0.5C 145.5,8.83333 145.5,18.1667 145.5,27.5C 96.8333,27.5 48.1667,27.5 -0.5,27.5C -0.5,18.1667 -0.5,8.83333 -0.5,-0.5 Z"/></g>
<g><path style="opacity:1" fill="#32b7f1" d="M 108.5,2.5 C 108.335,5.8499 108.502,9.18323 109,12.5C 109.717,11.9558 110.217,11.2891 110.5,10.5C 112.738,9.46336 115.071,9.29669 117.5,10C 119.037,11.1096 119.703,12.6096 119.5,14.5C 115.945,16.5208 115.611,19.0208 118.5,22C 117.167,22.6667 115.833,22.6667 114.5,22C 113.491,19.8282 111.824,18.6615 109.5,18.5C 109.5,19.8333 109.5,21.1667 109.5,22.5C 108.167,22.5 106.833,22.5 105.5,22.5C 105.473,15.8144 105.139,9.14769 104.5,2.5C 105.833,2.5 107.167,2.5 108.5,2.5 Z"/></g>
<g><path style="opacity:1" fill="#8bdbf7" d="M 108.5,2.5 C 109.167,5.16667 109.833,7.83333 110.5,10.5C 110.217,11.2891 109.717,11.9558 109,12.5C 108.502,9.18323 108.335,5.8499 108.5,2.5 Z"/></g>
<g><path style="opacity:1" fill="#42bbf2" d="M 2.5,3.5 C 4.16667,3.5 5.83333,3.5 7.5,3.5C 6.92416,9.48527 6.42416,15.4853 6,21.5C 4.91477,24.8175 3.41477,25.1508 1.5,22.5C 2.45956,16.2266 2.79289,9.89331 2.5,3.5 Z"/></g>
<g><path style="opacity:1" fill="#35b8f1" d="M 23.5,3.5 C 24.8333,3.5 26.1667,3.5 27.5,3.5C 27.3367,5.85684 27.5034,8.19018 28,10.5C 32.68,8.39487 36.0133,9.7282 38,14.5C 39.1552,9.4336 41.6552,8.4336 45.5,11.5C 44.5,12.1667 43.5,12.8333 42.5,13.5C 45.7291,14.8745 46.8958,17.2079 46,20.5C 44.2111,22.229 42.0444,22.8957 39.5,22.5C 39.5,21.5 39.5,20.5 39.5,19.5C 43.2233,18.4759 43.0567,17.1426 39,15.5C 38.1166,18.1024 36.6166,20.2691 34.5,22C 30.6931,21.894 27.0264,22.0607 23.5,22.5C 23.5,16.1667 23.5,9.83333 23.5,3.5 Z"/></g>
<g><path style="opacity:1" fill="#32b6f1" d="M 53.5,3.5 C 58.1667,3.5 62.8333,3.5 67.5,3.5C 67.5,4.5 67.5,5.5 67.5,6.5C 65.8333,6.5 64.1667,6.5 62.5,6.5C 62.3921,11.8699 62.7255,17.2032 63.5,22.5C 61.8333,22.5 60.1667,22.5 58.5,22.5C 58.5,17.1667 58.5,11.8333 58.5,6.5C 56.8333,6.5 55.1667,6.5 53.5,6.5C 53.5,5.5 53.5,4.5 53.5,3.5 Z"/></g>
<g><path style="opacity:1" fill="#34b9f1" d="M 12.5,9.5 C 19.3711,8.82143 22.5378,11.8214 22,18.5C 17.5706,23.8084 13.2373,23.8084 9,18.5C 7.98042,14.5532 9.14709,11.5532 12.5,9.5 Z"/></g>
<g><path style="opacity:1" fill="#36b8f1" d="M 68.5,9.5 C 71.5,10.8333 74.5,10.8333 77.5,9.5C 77.5,10.5 77.5,11.5 77.5,12.5C 76.1667,12.5 74.8333,12.5 73.5,12.5C 73.5,15.8333 73.5,19.1667 73.5,22.5C 72.1667,22.5 70.8333,22.5 69.5,22.5C 69.6282,18.1186 69.2949,13.7853 68.5,9.5 Z"/></g>
<g><path style="opacity:1" fill="#32b8f1" d="M 81.5,9.5 C 85.315,10.1049 88.9817,10.1049 92.5,9.5C 91.424,13.8097 91.424,18.143 92.5,22.5C 89.6163,21.6174 86.783,21.6174 84,22.5C 78.7678,21.7105 76.7678,18.7105 78,13.5C 78.6897,11.6498 79.8564,10.3164 81.5,9.5 Z"/></g>
<g><path style="opacity:1" fill="#2bb7f1" d="M 96.5,9.5 C 98.8333,9.5 101.167,9.5 103.5,9.5C 103.5,10.5 103.5,11.5 103.5,12.5C 98.1054,11.5548 96.4387,13.5548 98.5,18.5C 100.071,19.3094 101.738,19.6427 103.5,19.5C 103.5,20.5 103.5,21.5 103.5,22.5C 93.1186,22.4844 90.7853,18.1511 96.5,9.5 Z"/></g>
<g><path style="opacity:1" fill="#2fb7f1" d="M 119.5,14.5 C 122.865,8.80022 127.032,8.13355 132,12.5C 132.667,13.8333 132.667,15.1667 132,16.5C 129.26,17.2822 126.426,17.7822 123.5,18C 126.559,18.8203 129.559,19.487 132.5,20C 127.85,23.6216 123.683,23.1216 120,18.5C 119.51,17.2068 119.343,15.8734 119.5,14.5 Z"/></g>
<g><path style="opacity:1" fill="#36b8f1" d="M 133.5,9.5 C 136.5,10.8333 139.5,10.8333 142.5,9.5C 142.5,10.5 142.5,11.5 142.5,12.5C 141.167,12.5 139.833,12.5 138.5,12.5C 138.5,15.8333 138.5,19.1667 138.5,22.5C 137.167,22.5 135.833,22.5 134.5,22.5C 134.628,18.1186 134.295,13.7853 133.5,9.5 Z"/></g>
<g><path style="opacity:1" fill="#f9fdfe" d="M 14.5,12.5 C 16.8444,12.5062 18.1777,13.6729 18.5,16C 16.5,20.6667 14.5,20.6667 12.5,16C 12.8618,14.5657 13.5285,13.3991 14.5,12.5 Z"/></g>
<g><path style="opacity:1" fill="#f7fcfe" d="M 29.5,12.5 C 34.5082,13.01 35.5082,15.1766 32.5,19C 27.3823,18.8242 26.3823,16.6576 29.5,12.5 Z"/></g>
<g><path style="opacity:1" fill="#f7fcfe" d="M 83.5,12.5 C 88.4928,12.997 89.4928,15.1637 86.5,19C 81.3823,18.8242 80.3823,16.6576 83.5,12.5 Z"/></g>
<g><path style="opacity:1" fill="#f4fbfe" d="M 111.5,12.5 C 113.103,12.3118 114.437,12.8118 115.5,14C 113.553,14.9913 111.553,15.3247 109.5,15C 110.381,14.2917 111.047,13.4584 111.5,12.5 Z"/></g>
<g><path style="opacity:1" fill="#c5ebfb" d="M 125.5,12.5 C 126.376,12.3691 127.043,12.7025 127.5,13.5C 126.277,14.6139 124.944,14.7805 123.5,14C 124.416,13.7216 125.082,13.2216 125.5,12.5 Z"/></g>
</svg>
